<?xml version="1.0" encoding="utf-8"?>
<!-- Generator: Adobe Illustrator 24.1.0, SVG Export Plug-In . SVG Version: 6.00 Build 0)  -->
<svg version="1.1" xmlns="http://www.w3.org/2000/svg" xmlns:xlink="http://www.w3.org/1999/xlink" x="0px" y="0px"
	 viewBox="0 0 902.3 601.8" style="enable-background:new 0 0 902.3 601.8;" xml:space="preserve">
<style type="text/css">
	.st0{fill:#FF0000;}
</style>
<g id="baggrund">
	
		<image style="overflow:visible;" width="1000" height="667" xlink:href="../Creative Cloud Files/web/Dades/projekter/moebelfabrikken/Etape 2/isometri/moebelfabrikken0204.jpg"  transform="matrix(0.9023 0 0 0.9023 1 0)">
	</image>
</g>
<g id="Lejligheder">
	<g id="nr931">
		<polygon class="st0" points="175.7,355.2 175.7,371.7 198.1,357.1 198.1,355.2 205.2,350.5 205.2,335.9 		"/>
	</g>
	<g id="nr932">
		<polygon class="st0" points="141.7,377.8 141.7,394.2 175.7,371.7 175.7,355.2 		"/>
	</g>
	<g id="nr933">
		<polygon class="st0" points="40,376.1 113.1,412.7 141.7,394.2 141.7,377.8 113.2,396.6 40,359.7 		"/>
	</g>
	<g id="nr934">
		<polygon class="st0" points="205.2,335.9 205.2,319.5 175.7,338.7 175.7,355.2 		"/>
	</g>
	<g id="nr935">
		<polygon class="st0" points="141.7,361.4 141.7,377.8 175.7,355.2 175.7,338.7 		"/>
	</g>
	<g id="nr936">
		<polygon class="st0" points="113.2,396.6 141.7,377.8 141.7,361.4 113.2,380.1 40,343 40,359.7 		"/>
	</g>
	<g id="nr937">
		<polygon class="st0" points="175.7,322.6 175.7,338.7 205.2,319.5 205.2,303.1 		"/>
	</g>
	<g id="nr938">
		<polygon class="st0" points="141.7,361.4 175.7,338.7 175.7,322.6 141.7,345.2 		"/>
	</g>
	<g id="nr939">
		<polygon class="st0" points="113.2,380.1 141.7,361.4 141.7,345.2 113.2,363.8 40,326.8 40,343 		"/>
	</g>
	<g id="nr940">
		<polygon class="st0" points="205.2,303.1 205.2,286.6 202.6,288.6 129.2,251.4 102.6,269.8 131.2,284.1 119.8,292.2 163.3,314.5 
			163.3,330.8 175.7,322.6 		"/>
	</g>
	<g id="nr941">
		<polygon class="st0" points="113.2,363.8 141.7,345.2 163.3,330.8 163.3,314.5 119.8,292.2 111.8,297.3 82.7,282.5 40,310.8 
			40,326.8 		"/>
	</g>
	<g id="nr942">
		<polygon class="st0" points="294,293.1 294,276.9 265.1,296.3 265.1,312.6 		"/>
	</g>
	<g id="nr943">
		<polygon class="st0" points="231.3,318.7 265.1,296.3 265.1,312.6 251.1,322.2 249,321.5 231.3,333.4 		"/>
	</g>
	<g id="nr944">
		<polygon class="st0" points="205.2,335.9 231.3,318.7 231.3,333.4 205.2,350.5 		"/>
	</g>
	<g id="nr945">
		<polygon class="st0" points="294,276.9 294,260.8 265.1,279.8 265.1,296.3 		"/>
	</g>
	<g id="nr946">
		<polygon class="st0" points="231.3,318.7 231.3,302.3 265.1,279.8 265.1,296.3 		"/>
	</g>
	<g id="nr947">
		<polygon class="st0" points="205.2,335.9 231.3,318.7 231.3,302.3 205.2,319.5 		"/>
	</g>
	<g id="nr948">
		<polygon class="st0" points="294,260.8 294,244.4 265.1,263.6 265.1,279.8 		"/>
	</g>
	<g id="nr949">
		<polygon class="st0" points="231.3,302.3 265.1,279.8 265.1,263.6 231.3,285.8 		"/>
	</g>
	<g id="nr950">
		<polygon class="st0" points="205.2,303.1 205.2,319.5 231.3,302.3 231.3,285.8 		"/>
	</g>
	<g id="nr951">
		<polygon class="st0" points="294,244.4 294,228.1 265.1,247.1 265.1,263.6 		"/>
	</g>
	<g id="nr952">
		<polygon class="st0" points="231.3,285.8 265.1,263.6 265.1,247.1 231.3,269.5 		"/>
	</g>
	<g id="nr953_1_">
		<polygon class="st0" points="205.2,303.1 231.3,285.8 231.3,269.5 205.2,286.6 		"/>
	</g>
	<g id="nr954_1_">
		<polygon class="st0" points="294,211.8 294,228.1 265.1,247.1 265.1,231 		"/>
	</g>
	<g id="nr955_1_">
		<polygon class="st0" points="231.3,269.5 231.3,253.5 265.1,231 265.1,247.1 		"/>
	</g>
	<g id="nr956_1_">
		<polygon class="st0" points="202.6,288.6 205.2,286.6 231.3,269.5 231.3,253.5 202.6,272.1 129.5,235.3 129.2,251.4 		"/>
	</g>
	<g id="nr957_1_">
		<polygon class="st0" points="294,211.8 294,195.3 220.9,158.4 192.4,178.1 220,192 208.7,199.5 252.9,223 253.5,238.7 265.1,231 
					"/>
	</g>
	<g id="nr958_1_">
		<polygon class="st0" points="231.3,253.5 253.5,238.7 252.9,223 208.7,199.5 200.8,205.4 172,190.7 129.2,219.1 129.5,235.3 
			202.6,272.1 		"/>
	</g>
	<g id="nr959_1_">
		<polygon class="st0" points="357.2,235.2 357.2,251.9 386.4,232.6 386.4,216.3 		"/>
	</g>
	<g id="nr960">
		<polygon class="st0" points="323.3,273.9 357.2,251.9 357.2,235.2 323.3,257.7 		"/>
	</g>
	<g id="nr961">
		<polygon class="st0" points="294,276.9 323.3,257.7 323.3,273.9 294,293.1 		"/>
	</g>
	<g id="nr962">
		<polygon class="st0" points="386.4,216.3 386.4,199.9 357.2,219.2 357.2,235.2 		"/>
	</g>
	<g id="nr963">
		<polygon class="st0" points="323.3,257.7 357.2,235.2 357.2,219.2 323.3,241.3 		"/>
	</g>
	<g id="nr964">
		<polygon class="st0" points="294,260.8 294,276.9 323.3,257.7 323.3,241.3 		"/>
	</g>
	<g id="nr965">
		<polygon class="st0" points="357.2,202.7 357.2,219.2 386.4,199.9 386.4,183.3 		"/>
	</g>
	<g id="nr966">
		<polygon class="st0" points="323.3,241.3 323.3,225 357.2,202.7 357.2,219.2 		"/>
	</g>
	<g id="nr967">
		<polygon class="st0" points="294,244.4 294,260.8 323.3,241.3 323.3,225 		"/>
	</g>
	<g id="nr968">
		<polygon class="st0" points="357.2,186.4 357.2,202.7 386.4,183.3 386.4,167.2 		"/>
	</g>
	<g id="nr969">
		<polygon class="st0" points="323.3,225 323.3,208.8 357.2,186.4 357.2,202.7 		"/>
	</g>
	<g id="nr970">
		<polygon class="st0" points="294,228.1 294,244.4 323.3,225 323.3,208.8 		"/>
	</g>
	<g id="nr971">
		<polygon class="st0" points="357.2,170.1 357.2,186.4 386.4,167.2 386.4,150.9 		"/>
	</g>
	<g id="nr972">
		<polygon class="st0" points="323.3,192.1 323.3,208.8 357.2,186.4 357.2,170.1 		"/>
	</g>
	<g id="nr973">
		<polygon class="st0" points="294,211.8 294,228.1 323.3,208.8 323.3,192.1 		"/>
	</g>
	<g id="nr974">
		<polygon class="st0" points="357.2,153.7 357.2,170.1 386.4,150.9 386.4,134.6 		"/>
	</g>
	<g id="nr975">
		<polygon class="st0" points="323.3,176 323.3,192.1 357.2,170.1 357.2,153.7 		"/>
	</g>
	<g id="nr976">
		<polygon class="st0" points="294,211.8 323.3,192.1 323.3,176 294,195.3 		"/>
	</g>
	<g id="nr977">
		<polygon class="st0" points="386.4,134.6 386.4,115.1 357.2,135.1 357.2,153.7 		"/>
	</g>
	<g id="nr978">
		<polygon class="st0" points="323.3,176 357.2,153.7 357.2,135.1 323.3,157 		"/>
	</g>
	<g id="nr979">
		<polygon class="st0" points="294,195.3 323.3,176 323.3,157 294,176.2 221,139.2 220.9,158.4 		"/>
	</g>
	<g id="nr980">
		<polygon class="st0" points="386.4,115.1 389.2,113 389.2,96.6 379.6,91.8 377.3,93.5 313.3,61.4 283.3,81.1 312.2,95.2 
			297.9,104.8 342.3,127.7 342.4,144.6 357.2,135.1 		"/>
	</g>
	<g id="nr981">
		<polygon class="st0" points="323.3,157 342.4,144.6 342.3,127.7 297.9,104.8 279.2,117.3 250.7,103 221,122.5 221,139.2 
			294,176.2 		"/>
	</g>
	<g id="nr982">
		<polygon class="st0" points="464.4,235.2 464.4,219.2 411.4,199.9 411.4,216.3 		"/>
	</g>
	<g id="nr984">
		<polygon class="st0" points="386.4,216.3 411.4,199.9 411.4,216.3 386.4,232.6 		"/>
	</g>
	<g id="nr985">
		<polygon class="st0" points="464.4,219.2 464.4,202.7 411.4,183.3 411.4,199.9 		"/>
	</g>
	<g id="nr987">
		<polygon class="st0" points="386.4,199.9 411.4,183.3 411.4,199.9 386.4,216.3 		"/>
	</g>
	<g id="nr988">
		<polygon class="st0" points="464.4,202.7 464.4,186.4 411.4,167.2 411.4,183.3 		"/>
	</g>
	<g id="nr990">
		<polygon class="st0" points="386.4,183.3 411.4,167.2 411.4,183.3 386.4,199.9 		"/>
	</g>
	<g id="nr991">
		<polygon class="st0" points="464.4,186.4 464.4,170.1 411.4,150.9 411.4,167.2 		"/>
	</g>
	<g id="nr993">
		<polygon class="st0" points="386.4,167.2 386.4,183.3 411.4,167.2 411.4,150.9 		"/>
	</g>
	<g id="nr994">
		<polygon class="st0" points="464.4,170.1 464.4,154.3 411.4,135.1 411.4,150.9 		"/>
	</g>
	<g id="nr996">
		<polygon class="st0" points="386.4,167.2 411.4,150.9 411.4,135.1 386.4,150.9 		"/>
	</g>
	<g id="nr997">
		<polygon class="st0" points="464.4,154.3 464.4,137.5 411.4,118.4 411.4,135.1 		"/>
	</g>
	<g id="nr999">
		<polygon class="st0" points="386.4,150.9 411.4,135.1 411.4,118.4 386.4,134.6 		"/>
	</g>
	<g id="nr1000">
		<polygon class="st0" points="464.4,137.5 464.4,118.4 411.4,98.6 411.4,118.4 		"/>
	</g>
	<g id="nr1002">
		<polygon class="st0" points="386.4,134.6 411.4,118.4 411.4,98.6 389.2,113 386.4,115.1 		"/>
	</g>
	<g id="nr1003">
		<polygon class="st0" points="461.4,117.3 461.4,101 469.4,93.1 472.6,94 516.3,54.2 478.5,40.5 458.6,58.8 440.3,52.3 411.4,81.7 
			411.4,98.6 		"/>
	</g>
	<g id="nr1004">
		<polygon class="st0" points="389.2,113 411.4,98.6 411.4,81.7 440.3,52.3 414.8,42.7 382.3,63.8 341.4,43.1 313.3,61.4 
			377.3,93.5 379.6,91.8 389.2,96.6 		"/>
	</g>
	<g id="nr1005">
		<polygon class="st0" points="435.8,24.6 414.8,42.7 382.3,63.8 341.4,43.1 393.1,8.6 		"/>
	</g>
	<g id="nr1006">
		<polygon class="st0" points="582,278.7 582,262.5 544.8,248.7 544.8,265.5 		"/>
	</g>
	<g id="nr1007">
		<polygon class="st0" points="501.9,233.2 501.9,249.3 544.8,265.5 544.8,248.7 		"/>
	</g>
	<g id="nr1008">
		<polygon class="st0" points="464.4,235.2 501.9,249.3 501.9,233.2 464.4,219.2 		"/>
	</g>
	<g id="nr1009">
		<polygon class="st0" points="544.8,248.7 544.8,232.6 582,246.1 582,262.5 		"/>
	</g>
	<g id="nr1010">
		<polygon class="st0" points="501.9,233.2 501.9,216.5 544.8,232.6 544.8,248.7 		"/>
	</g>
	<g id="nr1011">
		<polygon class="st0" points="464.4,202.7 501.9,216.5 501.9,233.2 464.4,219.2 		"/>
	</g>
	<g id="nr1012">
		<polygon class="st0" points="582,246.1 582,229.8 544.8,216.5 544.8,232.6 		"/>
	</g>
	<g id="nr1013">
		<polygon class="st0" points="501.9,216.5 501.9,200.3 544.8,216.5 544.8,232.6 		"/>
	</g>
	<g id="nr1014">
		<polygon class="st0" points="464.4,186.4 464.4,202.7 501.9,216.5 501.9,200.3 		"/>
	</g>
	<g id="nr1015">
		<polygon class="st0" points="544.8,199.5 544.8,216.5 582,229.8 582,213.4 		"/>
	</g>
	<g id="nr1016">
		<polygon class="st0" points="501.9,184.1 501.9,200.3 544.8,216.5 544.8,199.5 		"/>
	</g>
	<g id="nr1017">
		<polygon class="st0" points="464.4,170.1 464.4,186.4 501.9,200.3 501.9,184.1 		"/>
	</g>
	<g id="nr1018">
		<polygon class="st0" points="582,213.4 582,197.3 544.8,183.3 544.8,199.5 		"/>
	</g>
	<g id="nr1019">
		<polygon class="st0" points="501.9,167.2 501.9,184.1 544.8,199.5 544.8,183.3 		"/>
	</g>
	<g id="nr1020">
		<polygon class="st0" points="464.4,154.3 464.4,170.1 501.9,184.1 501.9,167.2 		"/>
	</g>
	<g id="nr1021">
		<polygon class="st0" points="582,197.3 582,180.6 544.8,167.2 544.8,183.3 		"/>
	</g>
	<g id="nr1022">
		<polygon class="st0" points="501.9,151.3 501.9,167.2 544.8,183.3 544.8,167.2 		"/>
	</g>
	<g id="nr1023">
		<polygon class="st0" points="464.4,137.5 464.4,154.3 501.9,167.2 501.9,151.3 		"/>
	</g>
	<g id="nr1024">
		<polygon class="st0" points="582,180.6 582,161.6 544.8,147.7 544.8,167.2 		"/>
	</g>
	<g id="nr1025">
		<polygon class="st0" points="501.9,151.3 501.9,131.9 544.8,147.7 544.8,167.2 		"/>
	</g>
	<g id="nr1026">
		<polygon class="st0" points="464.4,137.5 501.9,151.3 501.9,131.9 464.4,118.4 		"/>
	</g>
	<g id="nr1027">
		<polygon class="st0" points="582,161.6 634.6,114.5 634.6,98 596.3,83.8 576.7,102.2 552.3,93 521.1,122.2 521.1,138.9 
			544.8,147.7 		"/>
	</g>
	<g id="nr1028">
		<polygon class="st0" points="501.9,131.9 521.1,138.9 521.1,122.2 552.3,93 533.6,86.5 553.8,68 516.3,54.2 472.6,94 469.4,93.1 
			461.4,101 461.4,117.3 464.4,118.4 		"/>
	</g>
	<g id="nr1029">
		<polygon class="st0" points="696.7,321.2 696.7,304.8 663.1,292.3 663.1,308.6 		"/>
	</g>
	<g id="nr1030">
		<polygon class="st0" points="619.8,276.3 619.8,292.8 635.4,298.8 639.3,297.1 657.3,307.3 663.1,308.6 663.1,292.3 		"/>
	</g>
	<g id="nr1031">
		<polygon class="st0" points="582,278.7 619.8,292.8 619.8,276.3 582,262.5 		"/>
	</g>
	<g id="nr1032">
		<polygon class="st0" points="663.1,292.3 663.1,275.8 696.7,288.5 696.7,304.8 		"/>
	</g>
	<g id="nr1033">
		<polygon class="st0" points="619.8,276.3 619.8,260 663.1,275.8 663.1,292.3 		"/>
	</g>
	<g id="nr1034">
		<polygon class="st0" points="582,262.5 582,246.1 619.8,260 619.8,276.3 		"/>
	</g>
	<g id="nr1035">
		<polygon class="st0" points="696.7,288.5 696.7,272.1 663.1,259.5 663.1,275.8 		"/>
	</g>
	<g id="nr1036">
		<polygon class="st0" points="619.8,260 619.8,243.5 663.1,259.5 663.1,275.8 		"/>
	</g>
	<g id="nr1037">
		<polygon class="st0" points="582,246.1 582,229.8 619.8,243.5 619.8,260 		"/>
	</g>
	<g id="nr1038">
		<polygon class="st0" points="696.7,272.1 696.7,255.6 663.1,243.5 663.1,259.5 		"/>
	</g>
	<g id="nr1039">
		<polygon class="st0" points="619.8,243.5 619.8,227.4 663.1,243.5 663.1,259.5 		"/>
	</g>
	<g id="nr1040">
		<polygon class="st0" points="582,213.4 582,229.8 619.8,243.5 619.8,227.4 		"/>
	</g>
	<g id="nr1041">
		<polygon class="st0" points="696.7,255.6 696.7,239.4 663.1,227 663.1,243.5 		"/>
	</g>
	<g id="nr1042">
		<polygon class="st0" points="619.8,211.2 619.8,227.4 663.1,243.5 663.1,227 		"/>
	</g>
	<g id="nr1043">
		<polygon class="st0" points="582,197.3 582,213.4 619.8,227.4 619.8,211.2 		"/>
	</g>
	<g id="nr1044">
		<polygon class="st0" points="696.7,239.4 696.7,223.2 663.1,210.3 663.1,227 		"/>
	</g>
	<g id="nr1045">
		<polygon class="st0" points="619.8,211.2 619.8,194.7 663.1,210.3 663.1,227 		"/>
	</g>
	<g id="nr1046">
		<polygon class="st0" points="582,197.3 582,180.6 619.8,194.7 619.8,211.2 		"/>
	</g>
	<g id="nr1047">
		<polygon class="st0" points="696.7,223.2 748.9,175.9 748.9,156.4 696.7,137.3 677.1,155.6 667.3,151.8 635.5,180.6 635.5,200.4 
			663.1,210.3 		"/>
	</g>
	<g id="nr1048">
		<polygon class="st0" points="619.8,194.7 635.5,200.4 635.5,180.6 667.3,151.8 651.9,146.3 671.7,128.2 634.6,114.5 582,161.6 
			582,180.6 		"/>
	</g>
	<g id="nr1049">
		<polygon class="st0" points="777.2,350.6 777.2,334.3 813.9,347.8 865.8,300.9 865.8,317.8 814.5,364 		"/>
	</g>
	<g id="nr1050">
		<polygon class="st0" points="734.1,318.3 734.1,334.9 777.2,350.6 777.2,334.3 		"/>
	</g>
	<g id="nr1051">
		<polygon class="st0" points="696.7,321.2 734.1,334.9 734.1,318.3 696.7,304.8 		"/>
	</g>
	<g id="nr1052">
		<polygon class="st0" points="777.2,334.3 777.2,318.3 814,331.7 865.8,284.8 865.8,300.9 813.9,347.8 		"/>
	</g>
	<g id="nr1053">
		<polygon class="st0" points="734.1,318.3 734.1,301.9 777.2,318.3 777.2,334.3 		"/>
	</g>
	<g id="nr1054">
		<polygon class="st0" points="696.7,288.5 734.1,301.9 734.1,318.3 696.7,304.8 		"/>
	</g>
	<g id="nr1055">
		<polygon class="st0" points="777.2,318.3 777.2,301.4 814.3,315 865.8,268.3 865.8,284.8 814,331.7 		"/>
	</g>
	<g id="nr1056">
		<polygon class="st0" points="734.1,301.9 734.1,285.8 777.2,301.4 777.2,318.3 		"/>
	</g>
	<g id="nr1057">
		<polygon class="st0" points="696.7,272.1 696.7,288.5 734.1,301.9 734.1,285.8 		"/>
	</g>
	<g id="nr1058">
		<polygon class="st0" points="777.2,301.4 777.2,285.2 813.8,298.5 865.8,252 865.8,268.3 814.3,315 		"/>
	</g>
	<g id="nr1059">
		<polygon class="st0" points="734.1,285.8 734.1,269.3 777.2,285.2 777.2,301.4 		"/>
	</g>
	<g id="nr1060">
		<polygon class="st0" points="696.7,272.1 696.7,255.6 734.1,269.3 734.1,285.8 		"/>
	</g>
	<g id="nr1061">
		<polygon class="st0" points="777.2,285.2 777.6,269.3 814,282.2 865.8,235.5 865.8,252 813.8,298.5 		"/>
	</g>
	<g id="nr1062">
		<polygon class="st0" points="734.1,269.3 734.6,252.9 777.6,269.3 777.2,285.2 		"/>
	</g>
	<g id="nr1063">
		<polygon class="st0" points="696.7,239.4 696.7,255.6 734.1,269.3 734.6,252.9 		"/>
	</g>
	<g id="nr1064">
		<polygon class="st0" points="814,282.2 865.8,235.5 865.8,218.9 810.9,198.9 791.6,217 781.5,213.3 749.8,242.6 749.8,258.7 
			777.6,269.3 		"/>
	</g>
	<g id="nr1065">
		<polygon class="st0" points="696.7,239.4 734.6,252.9 749.8,258.7 749.8,242.6 781.5,213.3 765.9,207.9 786.2,189.8 748.9,175.9 
			696.7,223.2 		"/>
	</g>
	<g id="nr14">
		<polygon class="st0" points="677.4,419.3 707.6,401.8 707.6,385.8 677.4,403.1 		"/>
	</g>
	<g id="nr15">
		<polygon class="st0" points="641.2,440.3 677.4,419.3 677.4,403.1 641.2,424.4 		"/>
	</g>
	<g id="nr16">
		<polygon class="st0" points="610.4,458.7 610.4,442.3 641.2,424.4 641.2,440.3 		"/>
	</g>
	<g id="nr17">
		<polygon class="st0" points="677.4,403.1 677.4,386.6 707.6,368.8 707.6,385.8 		"/>
	</g>
	<g id="nr18">
		<polygon class="st0" points="641.2,407.9 641.2,424.4 677.4,403.1 677.4,386.6 		"/>
	</g>
	<g id="nr19">
		<polygon class="st0" points="610.4,442.3 610.4,426.1 641.2,407.9 641.2,424.4 		"/>
	</g>
	<g id="nr20">
		<polygon class="st0" points="677.4,386.6 677.4,370.5 707.6,352.7 707.6,368.8 		"/>
	</g>
	<g id="nr21">
		<polygon class="st0" points="641.2,407.9 641.2,391.8 677.4,370.5 677.4,386.6 		"/>
	</g>
	<g id="nr22">
		<polygon class="st0" points="610.4,426.1 610.4,410 641.2,391.8 641.2,407.9 		"/>
	</g>
	<g id="nr23">
		<polygon class="st0" points="707.6,352.7 693.6,344.6 693.6,328.3 657.3,307.3 639.3,297.1 635.4,298.8 594,323.6 620.8,339.1 
			613.1,343.8 644.1,362.1 644,378.4 654.1,384.2 677.4,370.5 		"/>
	</g>
	<g id="nr24">
		<polygon class="st0" points="610.4,410 608,411.4 594,403.7 594,387 596.3,385.8 541.4,354.3 573,336.1 600.2,351.3 613.1,343.8 
			644.1,362.1 644,378.4 654.1,384.2 641.2,391.8 		"/>
	</g>
	<g id="nr25">
		<polygon class="st0" points="610.4,458.7 582.2,475.4 582.2,458.7 610.4,442.3 		"/>
	</g>
	<g id="nr26">
		<polygon class="st0" points="546.2,496.4 546.2,480.2 582.2,458.7 582.2,475.4 		"/>
	</g>
	<g id="nr27">
		<polygon class="st0" points="515.1,514.4 546.2,496.4 546.2,480.2 515.1,498.3 		"/>
	</g>
	<g id="nr28">
		<polygon class="st0" points="582.2,458.7 582.2,442.7 610.4,426.1 610.4,442.3 		"/>
	</g>
	<g id="nr29">
		<polygon class="st0" points="546.2,480.2 546.2,463.9 582.2,442.7 582.2,458.7 		"/>
	</g>
	<g id="nr30">
		<polygon class="st0" points="515.1,498.3 515.1,482.3 546.2,463.9 546.2,480.2 		"/>
	</g>
	<g id="nr31">
		<polygon class="st0" points="582.2,442.7 582.2,426.7 608,411.4 610.4,410 610.4,426.1 		"/>
	</g>
	<g id="nr32">
		<polygon class="st0" points="546.2,463.9 546.2,447.7 582.2,426.7 582.2,442.7 		"/>
	</g>
	<g id="nr33">
		<polygon class="st0" points="515.1,482.3 515.1,465.6 546.2,447.7 546.2,463.9 		"/>
	</g>
	<g id="nr34">
		<polygon class="st0" points="608,411.4 594,403.7 594,387 596.3,385.8 541.4,354.3 498.7,379.4 525.9,395.1 517.9,399.4 
			549,417.8 548.9,434.4 558.7,440.4 582.2,426.7 		"/>
	</g>
	<g id="nr35">
		<polygon class="st0" points="515.1,465.6 512.4,467.3 502.8,461.5 502.8,444.8 443.9,411.4 477.4,391.8 504.8,407.4 517.9,399.4 
			549,417.8 548.9,434.4 558.7,440.4 546.2,447.7 		"/>
	</g>
	<g id="nr36">
		<polygon class="st0" points="515.1,514.4 469.9,541.2 469.9,525.1 515.1,498.3 		"/>
	</g>
	<g id="nr37">
		<polygon class="st0" points="358.6,516.5 358.6,500.2 440.9,541.7 469.9,525.1 469.9,541.2 440.9,558.1 		"/>
	</g>
	<g id="nr38">
		<polygon class="st0" points="320,496.6 320,480.4 358.6,500.2 358.6,516.5 		"/>
	</g>
	<g id="nr39">
		<polygon class="st0" points="289.9,465.2 289.9,481.8 320,496.6 320,480.4 		"/>
	</g>
	<g id="nr40">
		<polygon class="st0" points="515.1,498.3 515.1,482.3 469.9,509 469.9,525.1 		"/>
	</g>
	<g id="nr41">
		<polygon class="st0" points="440.9,541.7 469.9,525.1 469.9,509 441.5,525.1 358.6,483.7 358.6,500.2 		"/>
	</g>
	<g id="nr42">
		<polygon class="st0" points="320,480.4 320,464 358.6,483.7 358.6,500.2 		"/>
	</g>
	<g id="nr43">
		<polygon class="st0" points="289.9,465.2 289.9,448.7 320,464 320,480.4 		"/>
	</g>
	<g id="nr44">
		<polygon class="st0" points="515.1,482.3 469.9,509 469.9,492.4 512.4,467.3 515.1,465.6 		"/>
	</g>
	<g id="nr45">
		<polygon class="st0" points="358.6,483.7 441.5,525.1 469.9,509 469.9,492.4 441.6,509 358.6,467.3 		"/>
	</g>
	<g id="nr46">
		<polygon class="st0" points="320,464 358.6,483.7 358.6,467.3 320,447.5 		"/>
	</g>
	<g id="nr47">
		<polygon class="st0" points="289.9,448.7 289.9,432.6 320,447.5 320,464 		"/>
	</g>
	<g id="nr48">
		<polygon class="st0" points="512.4,467.3 502.8,461.5 502.8,444.8 443.9,411.4 436.6,415.9 422.2,409 403.5,421.6 461.5,454.8 
			447.8,463.2 469.5,476.5 469.9,492.4 		"/>
	</g>
	<g id="nr49">
		<polygon class="st0" points="441.6,509 469.9,492.4 469.5,476.5 447.8,463.2 461.5,454.8 424.3,433.5 417.1,438.5 395.4,427.6 
			397.8,425.7 384,418.6 354.8,438 354.8,454.5 345.5,460.6 358.6,467.3 		"/>
	</g>
	<g id="nr50">
		<polygon class="st0" points="320,447.5 345.5,460.6 354.8,454.5 354.8,438 384,418.6 374.2,414.1 399.6,397.7 353.5,374.1 
			303.5,407.4 305.6,409 304.9,426.2 292.5,433.8 		"/>
	</g>
	<g id="nr51">
		<polygon class="st0" points="289.9,481.8 256.7,465.2 256.7,448.7 289.9,465.2 		"/>
	</g>
	<g id="nr52">
		<polygon class="st0" points="217.7,445.1 256.7,465.2 256.7,448.7 217.7,428.7 		"/>
	</g>
	<g id="nr53">
		<polygon class="st0" points="185.4,428.7 217.7,445.1 217.7,428.7 185.4,412.4 		"/>
	</g>
	<g id="nr54">
		<polygon class="st0" points="256.7,448.7 256.7,432 289.9,448.7 289.9,465.2 		"/>
	</g>
	<g id="nr55">
		<polygon class="st0" points="217.7,428.7 217.7,412.4 256.7,432 256.7,448.7 		"/>
	</g>
	<g id="nr56">
		<polygon class="st0" points="185.4,396.6 185.4,412.4 217.7,428.7 217.7,412.4 		"/>
	</g>
	<g id="nr57">
		<polygon class="st0" points="289.9,448.7 289.9,432.6 256.7,415.8 256.7,432 		"/>
	</g>
	<g id="nr58">
		<polygon class="st0" points="217.7,412.4 217.7,395.8 256.7,415.8 256.7,432 		"/>
	</g>
	<g id="nr59">
		<polygon class="st0" points="185.4,396.6 185.4,379.7 217.7,395.8 217.7,412.4 		"/>
	</g>
	<g id="nr60">
		<polygon class="st0" points="292.5,433.8 304.9,426.2 305.6,409 303.5,407.4 353.5,374.1 320,357.2 295.5,374.1 281.2,367 
			252.8,386.1 252.8,403.1 243,408.8 256.7,415.8 		"/>
	</g>
	<g id="nr61">
		<polygon class="st0" points="217.7,395.8 243,408.8 252.8,403.1 252.8,386.1 281.2,367 272.4,362.5 297.6,345.9 251.1,322.2 
			249,321.5 231.3,333.4 205.2,350.5 198.1,355.2 198.1,357.1 198.1,371.7 185.4,379.7 		"/>
	</g>
</g>
</svg>
